PathFileType	4	(x/y/z)	S08_PSF_T04
DataRate	CameraRate	NumFrames	NumMarkers	Units	OrigDataRate	OrigDataStartFrame	OrigNumFrames
240	240	9	51	mm	240	1	420
Frame#	Time	Sternum			R.Acromium			L.Acromium			Top.Head			R.ASIS			L.ASIS			R.PSIS			L.PSIS			R.Great.Tro			L.Great.Tro			R.Iliac.Crest			L.Iliac.Crest			V.Sacral			R.Thigh.Upper.Post			R.Thigh.Lower.Ant			R.Thigh.Lower.Post			R.Thigh.Upper.Ant			R.Knee.Lat			R.Knee.Med			R.Shank.Upper.Post			R.Shank.Lower.Ant			R.Shank.Lower.Post			R.Shank.Upper.Ant			R.Ankle.Lat			R.Ankle.Med			R.Heel.Upper			R.Heel.Med			R.Heel.Lat			R.Toe.Lat			R.Toe.Med			R.Toe.Tip			L.Thigh.Upper.Post			L.Thigh.Lower.Ant			L.Thigh.Lower.Post			L.Thigh.Upper.Ant			L.Knee.Lat			L.Knee.Med			L.Shank.Upper.Post			L.Shank.Lower.Ant			L.Shank.Lower.Post			L.Shank.Upper.Ant			L.Ankle.Lat			L.Ankle.Med			L.Heel.Upper			L.Heel.Med			L.Heel.Lat			L.Toe.Lat			L.Toe.Med			L.Toe.Tip			Cervical.Spine			Back			
		X1	Y1	Z1	X2	Y2	Z2	X3	Y3	Z3	X4	Y4	Z4	X5	Y5	Z5	X6	Y6	Z6	X7	Y7	Z7	X8	Y8	Z8	X9	Y9	Z9	X10	Y10	Z10	X11	Y11	Z11	X12	Y12	Z12	X13	Y13	Z13	X14	Y14	Z14	X15	Y15	Z15	X16	Y16	Z16	X17	Y17	Z17	X18	Y18	Z18	X19	Y19	Z19	X20	Y20	Z20	X21	Y21	Z21	X22	Y22	Z22	X23	Y23	Z23	X24	Y24	Z24	X25	Y25	Z25	X26	Y26	Z26	X27	Y27	Z27	X28	Y28	Z28	X29	Y29	Z29	X30	Y30	Z30	X31	Y31	Z31	X32	Y32	Z32	X33	Y33	Z33	X34	Y34	Z34	X35	Y35	Z35	X36	Y36	Z36	X37	Y37	Z37	X38	Y38	Z38	X39	Y39	Z39	X40	Y40	Z40	X41	Y41	Z41	X42	Y42	Z42	X43	Y43	Z43	X44	Y44	Z44	X45	Y45	Z45	X46	Y46	Z46	X47	Y47	Z47	X48	Y48	Z48	X49	Y49	Z49	X50	Y50	Z50	X51	Y51	Z51	

1	0	NaN	NaN	NaN	-1600.9	1451.5	528.72	-1622.5	1480.5	193.82	-1592.1	1769.8	368.46	NaN	NaN	NaN	NaN	NaN	NaN	NaN	NaN	NaN	NaN	NaN	NaN	-1611	897.03	526.83	-1578.8	895.48	156.84	-1626.5	1071.1	502.67	-1595.5	1084.1	194.77	-1727.1	982.47	323.05	-1670.4	709.38	506.17	-1616	599.2	468.83	NaN	NaN	NaN	NaN	NaN	NaN	-1685.8	509.7	457.64	-1700.4	523.26	330.09	NaN	NaN	NaN	-1778.4	285.45	428.29	-1846	292.83	442.41	-1770.1	350.71	444.61	-1911.4	138.09	396.76	-1875.9	145.03	321.67	-1967.7	110.96	348.01	-1958.7	81.217	321.61	-1968.8	86.489	382.19	-1802.8	38.913	436.5	-1776.5	49.18	320.54	-1712.1	52.65	368.72	-1523.5	691.13	169.99	-1408.7	637.5	194.56	-1479.8	613.5	187.2	-1442.1	716.11	163.94	-1425.4	526.42	208.08	-1414.2	529.25	332.77	-1413.7	337.75	207.28	-1317.4	281.71	226.14	-1390.3	268.77	221.58	-1348	350.09	211.67	-1303.7	112.09	235.09	-1282.7	128.31	320.29	NaN	NaN	NaN	NaN	NaN	NaN	-1318.5	40.843	253.3	-1152.4	101.38	224.44	-1142.4	118.1	335.69	-1090.3	159.06	288.25	-1680.5	1512	358.36	-1730.8	1228.5	366.91
2	0.0041667	NaN	NaN	NaN	-1596	1451.2	528.34	-1617.7	1480.2	193.44	-1587.4	1769.5	368.21	NaN	NaN	NaN	NaN	NaN	NaN	NaN	NaN	NaN	NaN	NaN	NaN	-1605.7	896.67	526.42	-1573.7	895.29	156.76	-1621.2	1070.7	502.39	-1590.2	1083.8	194.4	-1721.8	982.24	322.76	-1665.3	709.1	505.69	-1611.4	598.8	468.75	NaN	NaN	NaN	-1586.8	689.3	494.49	-1681	509.57	457.88	-1694.8	522.71	330.18	NaN	NaN	NaN	-1775.2	286.06	428.67	-1842.4	294.06	442.7	-1765.1	351.02	444.8	-1909.9	139.98	397.28	-1874	146.51	322.22	-1966.3	113.63	348.43	-1957.6	83.959	321.89	-1967.7	89.014	382.48	-1802.5	38.959	436.54	-1776.2	49.415	320.7	-1712.1	52.494	368.82	-1518.8	690.69	170.29	-1402.9	637.37	193.89	-1475.1	613.09	187.61	-1437.7	715.47	164.16	-1420.4	525.96	208.55	-1409.4	528.87	333.09	-1410.3	337.21	207.57	-1314.6	280.45	226.73	-1387.5	268.04	221.92	-1344.6	349.03	212.21	-1302	110.99	235.44	-1281.2	126.95	320.9	NaN	NaN	NaN	NaN	NaN	NaN	-1317.8	40.835	253.51	-1151.1	98.918	225.08	-1141	115.05	336.38	-1088.4	155.68	289.21	-1675.6	1511.6	358.02	-1725.6	1228	366.59
3	0.0083333	NaN	NaN	NaN	-1590.8	1450.9	527.93	-1612.7	1479.8	193.04	-1582.5	1769.3	367.95	NaN	NaN	NaN	NaN	NaN	NaN	NaN	NaN	NaN	NaN	NaN	NaN	-1600.2	896.3	525.98	-1568.5	895.09	156.66	-1615.5	1070.3	502.1	-1584.7	1083.5	194.02	-1716.2	982.01	322.46	-1660	708.81	505.18	-1606.7	598.38	468.7	NaN	NaN	NaN	-1581.5	688.9	494.34	-1675.9	509.41	458.14	-1688.9	522.14	330.29	NaN	NaN	NaN	-1771.7	286.72	429.07	-1838.5	295.34	443.02	-1760	351.37	445.02	-1908.2	141.99	397.83	-1872	148.07	322.81	-1964.8	116.47	348.89	-1956.4	86.877	322.18	-1966.5	91.707	382.79	-1802.3	39.01	436.6	-1775.9	49.661	320.87	-1712	52.332	368.93	-1513.8	690.26	170.59	-1396.9	637.21	193.24	-1470.2	612.68	188.01	-1433.1	714.84	164.39	-1415.3	525.49	209	-1404.5	528.47	333.41	-1406.8	336.67	207.86	-1311.6	279.16	227.33	-1384.6	267.3	222.25	-1341.1	347.96	212.75	-1300.2	109.88	235.79	-1279.6	125.57	321.53	NaN	NaN	NaN	NaN	NaN	NaN	-1317.1	40.851	253.74	-1149.8	96.354	225.73	-1139.5	111.88	337.08	-1086.4	152.14	290.18	-1670.5	1511.3	357.66	-1720.2	1227.6	366.25
4	0.0125	NaN	NaN	NaN	-1585.5	1450.6	527.5	-1607.5	1479.5	192.62	-1577.4	1769	367.67	NaN	NaN	NaN	NaN	NaN	NaN	NaN	NaN	NaN	NaN	NaN	NaN	-1594.5	895.92	525.53	-1563	894.9	156.55	-1609.7	1069.9	501.79	-1578.9	1083.1	193.62	-1710.5	981.8	322.15	-1654.6	708.53	504.65	-1601.8	597.96	468.69	NaN	NaN	NaN	-1575.9	688.47	494.22	-1670.6	509.24	458.42	-1682.7	521.54	330.42	NaN	NaN	NaN	-1767.9	287.43	429.5	-1834.4	296.69	443.36	-1754.7	351.77	445.28	-1906.3	144.09	398.42	-1869.9	149.7	323.44	-1963.1	119.47	349.37	-1955	89.97	322.5	-1965.1	94.566	383.11	-1802	39.072	436.65	-1775.6	49.919	321.05	-1712	52.164	369.05	-1508.7	689.86	170.89	-1390.9	637.04	192.6	-1465.2	612.27	188.4	-1428.2	714.22	164.6	-1410	525.02	209.43	-1399.4	528.06	333.72	-1403.1	336.12	208.13	-1308.5	277.87	227.94	-1381.6	266.57	222.57	-1337.4	346.88	213.3	-1298.3	108.76	236.13	-1277.9	124.18	322.17	NaN	NaN	NaN	NaN	NaN	NaN	-1316.3	40.894	253.96	-1148.4	93.709	226.38	-1138	108.62	337.79	-1084.4	148.47	291.16	-1665.3	1510.9	357.28	-1714.6	1227.1	365.89
5	0.016667	NaN	NaN	NaN	-1580	1450.3	527.05	-1602.2	1479.2	192.18	-1572.2	1768.8	367.39	NaN	NaN	NaN	NaN	NaN	NaN	NaN	NaN	NaN	NaN	NaN	NaN	-1588.6	895.55	525.06	-1557.4	894.72	156.43	-1603.7	1069.6	501.48	-1573.1	1082.8	193.21	-1704.6	981.61	321.84	-1649	708.25	504.09	-1596.7	597.53	468.71	NaN	NaN	NaN	-1570.1	688.03	494.14	-1665	509.04	458.73	-1676.3	520.9	330.58	NaN	NaN	NaN	-1764	288.17	429.96	-1830	298.09	443.74	-1749.4	352.21	445.57	-1904.4	146.29	399.05	-1867.6	151.41	324.11	-1961.2	122.63	349.88	-1953.6	93.234	322.83	-1963.7	97.591	383.46	-1801.7	39.146	436.71	-1775.3	50.191	321.23	-1711.9	51.992	369.16	-1503.4	689.48	171.17	-1384.7	636.84	192	-1460	611.88	188.77	-1423.2	713.62	164.8	-1404.7	524.54	209.82	-1394.3	527.65	334.02	-1399.3	335.59	208.38	-1305.3	276.58	228.54	-1378.4	265.84	222.89	-1333.5	345.81	213.84	-1296.4	107.66	236.47	-1276.1	122.8	322.82	NaN	NaN	NaN	NaN	NaN	NaN	-1315.5	40.967	254.19	-1147	91.002	227.04	-1136.4	105.29	338.49	-1082.3	144.7	292.15	-1659.9	1510.5	356.87	-1708.9	1226.7	365.52
6	0.020833	NaN	NaN	NaN	-1574.5	1450	526.59	-1596.8	1479	191.73	-1566.9	1768.6	367.11	NaN	NaN	NaN	NaN	NaN	NaN	NaN	NaN	NaN	NaN	NaN	NaN	-1582.5	895.17	524.59	-1551.6	894.56	156.3	-1597.5	1069.2	501.16	-1567.1	1082.6	192.79	-1698.5	981.44	321.53	-1643.2	707.97	503.51	-1591.5	597.09	468.78	NaN	NaN	NaN	-1564.2	687.57	494.11	-1659.1	508.82	459.07	-1669.6	520.24	330.76	NaN	NaN	NaN	-1759.9	288.96	430.44	-1825.4	299.54	444.14	-1744	352.7	445.91	-1902.2	148.58	399.72	-1865.1	153.18	324.82	-1959.2	125.95	350.43	-1952	96.67	323.19	-1962.2	100.78	383.83	-1801.5	39.239	436.77	-1774.9	50.477	321.42	-1711.8	51.817	369.28	-1498	689.14	171.43	-1378.5	636.63	191.45	-1454.8	611.51	189.12	-1418.1	713.06	164.99	-1399.3	524.08	210.17	-1389.1	527.22	334.29	-1395.3	335.07	208.61	-1302	275.31	229.13	-1375.2	265.13	223.18	-1329.6	344.76	214.36	-1294.5	106.58	236.8	-1274.3	121.44	323.47	NaN	NaN	NaN	NaN	NaN	NaN	-1314.7	41.075	254.42	-1145.5	88.25	227.7	-1134.8	101.92	339.18	-1080.1	140.85	293.11	-1654.4	1510.2	356.45	-1703	1226.3	365.13
7	0.025	NaN	NaN	NaN	-1568.8	1449.8	526.12	-1591.2	1478.7	191.27	-1561.5	1768.4	366.82	NaN	NaN	NaN	NaN	NaN	NaN	NaN	NaN	NaN	NaN	NaN	NaN	-1576.3	894.81	524.1	-1545.8	894.42	156.15	-1591.1	1068.9	500.83	-1560.9	1082.3	192.37	-1692.3	981.3	321.22	-1637.3	707.69	502.92	-1586.1	596.66	468.89	NaN	NaN	NaN	-1558	687.1	494.12	-1653.1	508.58	459.43	-1662.7	519.56	330.97	NaN	NaN	NaN	-1755.6	289.78	430.95	-1820.6	301.04	444.57	-1738.5	353.22	446.29	-1900	150.96	400.44	-1862.5	155.01	325.58	-1957	129.43	351	-1950.2	100.28	323.58	-1960.5	104.14	384.23	-1801.2	39.355	436.84	-1774.5	50.779	321.62	-1711.7	51.64	369.4	-1492.5	688.85	171.67	-1372.3	636.41	190.94	-1449.4	611.17	189.42	-1412.7	712.54	165.14	-1394	523.63	210.48	-1383.9	526.8	334.54	-1391.3	334.58	208.8	-1298.6	274.07	229.7	-1371.9	264.45	223.44	-1325.7	343.73	214.86	-1292.5	105.54	237.12	-1272.4	120.12	324.12	NaN	NaN	NaN	NaN	NaN	NaN	-1313.8	41.219	254.64	-1144.1	85.469	228.33	-1133.2	98.526	339.85	-1077.9	136.93	294.06	-1648.8	1509.8	356.02	-1697.1	1225.9	364.72
8	0.029167	NaN	NaN	NaN	-1563.1	1449.5	525.63	-1585.6	1478.5	190.78	-1556	1768.2	366.52	NaN	NaN	NaN	NaN	NaN	NaN	NaN	NaN	NaN	NaN	NaN	NaN	-1569.9	894.44	523.61	-1539.8	894.3	155.98	-1584.7	1068.6	500.5	-1554.7	1082.1	191.94	-1686.1	981.19	320.91	-1631.3	707.41	502.32	-1580.5	596.22	469.05	NaN	NaN	NaN	-1551.7	686.62	494.18	-1646.7	508.31	459.82	-1655.5	518.84	331.2	NaN	NaN	NaN	-1751	290.64	431.49	-1815.5	302.58	445.04	-1732.9	353.79	446.73	-1897.6	153.43	401.19	-1859.7	156.9	326.37	-1954.6	133.06	351.6	-1948.3	104.05	323.99	-1958.6	107.67	384.66	-1800.9	39.501	436.91	-1774.1	51.101	321.82	-1711.6	51.461	369.52	-1487	688.61	171.86	-1366.2	636.17	190.5	-1444.1	610.86	189.67	-1407.3	712.08	165.27	-1388.6	523.2	210.73	-1378.7	526.38	334.76	-1387.3	334.11	208.96	-1295.2	272.87	230.25	-1368.5	263.81	223.67	-1321.6	342.75	215.33	-1290.5	104.54	237.42	-1270.5	118.85	324.76	NaN	NaN	NaN	NaN	NaN	NaN	-1312.9	41.398	254.86	-1142.6	82.674	228.95	-1131.7	95.127	340.49	-1075.7	132.97	294.96	-1643.1	1509.5	355.56	-1691	1225.5	364.3
9	0.033333	NaN	NaN	NaN	-1557.4	1449.3	525.13	-1580	1478.2	190.29	-1550.5	1768.1	366.22	NaN	NaN	NaN	NaN	NaN	NaN	NaN	NaN	NaN	NaN	NaN	NaN	-1563.5	894.09	523.11	-1533.8	894.21	155.78	-1578.1	1068.4	500.17	-1548.5	1081.9	191.51	-1679.7	981.12	320.61	-1625.2	707.11	501.73	-1574.8	595.78	469.25	NaN	NaN	NaN	-1545.3	686.14	494.29	-1640.2	508.01	460.24	-1648.2	518.1	331.48	NaN	NaN	NaN	-1746.3	291.54	432.05	-1810.2	304.15	445.53	-1727.4	354.38	447.23	-1895	155.97	401.98	-1856.8	158.85	327.2	-1951.9	136.84	352.23	-1946.2	108	324.43	-1956.6	111.38	385.12	-1800.6	39.685	436.99	-1773.6	51.447	322.03	-1711.4	51.281	369.65	-1481.4	688.43	172	-1360.1	635.93	190.13	-1438.6	610.59	189.87	-1401.7	711.68	165.35	-1383.3	522.79	210.93	-1373.6	525.97	334.95	-1383.2	333.69	209.07	-1291.7	271.71	230.76	-1365	263.2	223.86	-1317.5	341.81	215.77	-1288.5	103.59	237.69	-1268.5	117.64	325.39	NaN	NaN	NaN	-1307.4	35.951	319.27	-1312.1	41.612	255.07	-1141.2	79.881	229.53	-1130.1	91.746	341.09	-1073.5	128.99	295.82	-1637.5	1509.2	355.09	-1684.9	1225.1	363.87
